<svg xmlns="http://www.w3.org/2000/svg" width="48" height="60" viewBox="0 0 48 60" fill="none">
  <defs>
    <linearGradient id="pinGrad" x1="12" y1="4" x2="38" y2="52" gradientUnits="userSpaceOnUse">
      <stop stop-color="#1e4d8b"/>
      <stop offset="0.55" stop-color="#1a5f9e"/>
      <stop offset="1" stop-color="#16a34a"/>
    </linearGradient>
    <linearGradient id="flameGrad" x1="24" y1="10" x2="24" y2="34" gradientUnits="userSpaceOnUse">
      <stop stop-color="#f97316"/>
      <stop offset="1" stop-color="#eab308"/>
    </linearGradient>
    <filter id="shadow" x="4" y="4" width="44" height="56" filterUnits="userSpaceOnUse" color-interpolation-filters="sRGB">
      <feDropShadow dx="0" dy="2" stdDeviation="2" flood-opacity="0.35"/>
    </filter>
  </defs>
  <!-- Pin body -->
  <path filter="url(#shadow)" fill="url(#pinGrad)" stroke="#0f2d52" stroke-width="1.2"
    d="M24 4C14.6 4 7 11.6 7 21c0 12 17 33 17 33s17-21 17-33c0-9.4-7.6-17-17-17z"/>
  <!-- Inner flame (energy) -->
  <path fill="url(#flameGrad)" opacity="0.95"
    d="M24 12c-3.5 0-6 3-6 6.5 0 4 2.5 7 6 11 3.5-4 6-7 6-11 0-3.5-2.5-6.5-6-6.5zm0 4c1.7 0 3 1.4 3 3.2 0 2-1.2 3.8-3 6.2-1.8-2.4-3-4.2-3-6.2 0-1.8 1.3-3.2 3-3.2z"/>
  <circle cx="24" cy="22" r="2.2" fill="#fff" opacity="0.9"/>
</svg>
